<svg xmlns="http://www.w3.org/2000/svg" viewBox="0 0 256 256">
  <defs>
    <linearGradient id="bg" x1="0" y1="0" x2="1" y2="1">
      <stop offset="0%" stop-color="#f2d18b"/>
      <stop offset="100%" stop-color="#b9772e"/>
    </linearGradient>
  </defs>
  <rect width="256" height="256" rx="56" fill="url(#bg)"/>
  <path d="M91 60c8-8 20-10 31-5l13 6c8 4 12 13 10 22l-5 18c-1 5 0 10 4 13l17 17c3 4 8 5 13 4l18-5c9-2 18 2 22 10l6 13c5 11 3 23-5 31l-12 12c-13 13-33 18-50 11-28-11-56-34-82-67-26-33-41-67-43-93-1-12 3-24 12-32l11-11z" fill="#2a1706"/>
</svg>
