<svg xmlns="http://www.w3.org/2000/svg" viewBox="0 0 256 256">
  <defs>
    <linearGradient id="bg" x1="0" y1="0" x2="1" y2="1">
      <stop offset="0%" stop-color="#c9c6c1"/>
      <stop offset="100%" stop-color="#6f6b67"/>
    </linearGradient>
  </defs>
  <rect width="256" height="256" rx="56" fill="url(#bg)"/>
  <path d="M145 48l9 20 22 5 3 23 18 14-10 21 10 21-18 14-3 23-22 5-9 20h-24l-9-20-22-5-3-23-18-14 10-21-10-21 18-14 3-23 22-5 9-20h24zm-17 51a29 29 0 100 58 29 29 0 000-58z" fill="#22201f"/>
</svg>
